<mxfile host="app.diagrams.net" modified="2023-10-29T18:49:03.386Z" agent="Mozilla/5.0 (Windows NT 10.0; Win64; x64) AppleWebKit/537.36 (KHTML, like Gecko) Chrome/118.0.0.0 Safari/537.36" version="22.0.8" etag="99ydp_g7IxHe1HM4JMCV" type="github">
  <diagram name="Page-1" id="GgQyJr4Vmm-F2OqeB0rx">
    <mxGraphModel>
      <root>
        <mxCell id="0" />
        <mxCell id="1" parent="0" />
      </root>
    </mxGraphModel>
  </diagram>
</mxfile>
